<svg xmlns="http://www.w3.org/2000/svg" xmlns:xlink="http://www.w3.org/1999/xlink" xmlns:serif="http://www.serif.com/" viewBox="0 0 48 60" version="1.1" xml:space="preserve" style="" x="0px" y="0px" fill-rule="evenodd" clip-rule="evenodd" stroke-linejoin="round" stroke-miterlimit="2"><g transform="matrix(1,0,0,1,-48,-144)"><g><path d="M64,191C64.796,191 65.559,190.684 66.121,190.121C66.684,189.559 67,188.796 67,188L67,172C67,171.735 67.105,171.48 67.293,171.293C67.48,171.105 67.735,171 68,171C68,171 76,171 76,171C76.265,171 76.52,171.105 76.707,171.293C76.895,171.48 77,171.735 77,172L77,188C77,188.796 77.316,189.559 77.879,190.121C78.441,190.684 79.204,191 80,191L90,191C92.761,191 95,188.761 95,186C95,186 95,164 95,164C95,162.457 94.288,161.001 93.07,160.053C93.07,160.053 75.07,146.053 75.07,146.053C73.264,144.649 70.736,144.649 68.93,146.053C68.93,146.053 50.93,160.053 50.93,160.053C49.712,161.001 49,162.457 49,164L49,186C49,188.761 51.239,191 54,191L64,191ZM64,189L54,189C52.343,189 51,187.657 51,186C51,186 51,164 51,164C51,163.074 51.427,162.2 52.158,161.632C52.158,161.632 70.158,147.632 70.158,147.632C71.242,146.789 72.758,146.789 73.842,147.632C73.842,147.632 91.842,161.632 91.842,161.632C92.573,162.2 93,163.074 93,164L93,186C93,187.657 91.657,189 90,189C90,189 80,189 80,189C79.735,189 79.48,188.895 79.293,188.707C79.105,188.52 79,188.265 79,188L79,172C79,171.204 78.684,170.441 78.121,169.879C77.559,169.316 76.796,169 76,169L68,169C67.204,169 66.441,169.316 65.879,169.879C65.316,170.441 65,171.204 65,172L65,188C65,188.265 64.895,188.52 64.707,188.707C64.52,188.895 64.265,189 64,189Z"/></g></g><text x="0" y="63" fill="#000000" font-size="5px" font-weight="bold" font-family="'Helvetica Neue', Helvetica, Arial-Unicode, Arial, Sans-serif">Created by Mada Creative</text><text x="0" y="68" fill="#000000" font-size="5px" font-weight="bold" font-family="'Helvetica Neue', Helvetica, Arial-Unicode, Arial, Sans-serif">from the Noun Project</text></svg>